<mxfile host="app.diagrams.net" modified="2023-04-11T09:45:58.126Z" agent="Mozilla/5.0 (Windows NT 10.0; Win64; x64) AppleWebKit/537.36 (KHTML, like Gecko) Chrome/112.0.0.0 Safari/537.36" etag="gijQxyD1NRUOG7Omlxs-" version="21.1.5" type="github">
  <diagram name="第 1 页" id="guaNWOwT1R4R38XN0eY1">
    <mxGraphModel dx="2074" dy="1116" grid="1" gridSize="10" guides="1" tooltips="1" connect="1" arrows="1" fold="1" page="1" pageScale="1" pageWidth="827" pageHeight="1169" math="0" shadow="0">
      <root>
        <mxCell id="0" />
        <mxCell id="1" parent="0" />
        <mxCell id="eEtcfb9rqF0rnYNffKv3-1" style="edgeStyle=orthogonalEdgeStyle;rounded=0;orthogonalLoop=1;jettySize=auto;html=1;exitX=0.5;exitY=1;exitDx=0;exitDy=0;" edge="1" parent="1" source="eEtcfb9rqF0rnYNffKv3-6" target="eEtcfb9rqF0rnYNffKv3-7">
          <mxGeometry relative="1" as="geometry">
            <mxPoint x="157" y="280" as="targetPoint" />
            <Array as="points">
              <mxPoint x="410" y="240" />
              <mxPoint x="80" y="240" />
            </Array>
          </mxGeometry>
        </mxCell>
        <mxCell id="eEtcfb9rqF0rnYNffKv3-2" style="edgeStyle=orthogonalEdgeStyle;rounded=0;orthogonalLoop=1;jettySize=auto;html=1;exitX=0.5;exitY=1;exitDx=0;exitDy=0;" edge="1" parent="1" source="eEtcfb9rqF0rnYNffKv3-6" target="eEtcfb9rqF0rnYNffKv3-11">
          <mxGeometry relative="1" as="geometry">
            <mxPoint x="197" y="310" as="targetPoint" />
            <Array as="points">
              <mxPoint x="440" y="240" />
              <mxPoint x="260" y="240" />
            </Array>
          </mxGeometry>
        </mxCell>
        <mxCell id="eEtcfb9rqF0rnYNffKv3-3" style="edgeStyle=orthogonalEdgeStyle;rounded=0;orthogonalLoop=1;jettySize=auto;html=1;exitX=0.5;exitY=1;exitDx=0;exitDy=0;entryX=0.5;entryY=0;entryDx=0;entryDy=0;" edge="1" parent="1" source="eEtcfb9rqF0rnYNffKv3-6" target="eEtcfb9rqF0rnYNffKv3-18">
          <mxGeometry relative="1" as="geometry" />
        </mxCell>
        <mxCell id="eEtcfb9rqF0rnYNffKv3-4" style="edgeStyle=orthogonalEdgeStyle;rounded=0;orthogonalLoop=1;jettySize=auto;html=1;exitX=0.5;exitY=1;exitDx=0;exitDy=0;entryX=0.5;entryY=0;entryDx=0;entryDy=0;" edge="1" parent="1" source="eEtcfb9rqF0rnYNffKv3-6" target="eEtcfb9rqF0rnYNffKv3-26">
          <mxGeometry relative="1" as="geometry" />
        </mxCell>
        <mxCell id="eEtcfb9rqF0rnYNffKv3-5" style="edgeStyle=orthogonalEdgeStyle;rounded=0;orthogonalLoop=1;jettySize=auto;html=1;exitX=0.5;exitY=1;exitDx=0;exitDy=0;entryX=0.5;entryY=0;entryDx=0;entryDy=0;" edge="1" parent="1" source="eEtcfb9rqF0rnYNffKv3-6" target="eEtcfb9rqF0rnYNffKv3-27">
          <mxGeometry relative="1" as="geometry">
            <mxPoint x="740" y="280" as="targetPoint" />
            <Array as="points">
              <mxPoint x="440" y="240" />
              <mxPoint x="700" y="240" />
            </Array>
          </mxGeometry>
        </mxCell>
        <mxCell id="eEtcfb9rqF0rnYNffKv3-6" value="教师功能" style="rounded=0;whiteSpace=wrap;html=1;" vertex="1" parent="1">
          <mxGeometry x="380" y="160" width="120" height="40" as="geometry" />
        </mxCell>
        <mxCell id="eEtcfb9rqF0rnYNffKv3-7" value="&lt;p style=&quot;direction: ltr; line-height: 120%;&quot;&gt;用&lt;/p&gt;&lt;p style=&quot;direction: ltr; line-height: 120%;&quot;&gt;户&lt;/p&gt;&lt;p style=&quot;direction: ltr; line-height: 120%;&quot;&gt;登&lt;/p&gt;&lt;p style=&quot;direction: ltr; line-height: 120%;&quot;&gt;录&lt;/p&gt;" style="rounded=0;whiteSpace=wrap;html=1;horizontal=1;verticalAlign=middle;" vertex="1" parent="1">
          <mxGeometry x="120" y="360" width="40" height="160" as="geometry" />
        </mxCell>
        <mxCell id="eEtcfb9rqF0rnYNffKv3-8" style="edgeStyle=orthogonalEdgeStyle;rounded=0;orthogonalLoop=1;jettySize=auto;html=1;exitX=0.5;exitY=1;exitDx=0;exitDy=0;" edge="1" parent="1" source="eEtcfb9rqF0rnYNffKv3-11" target="eEtcfb9rqF0rnYNffKv3-12">
          <mxGeometry relative="1" as="geometry">
            <mxPoint x="223" y="350" as="targetPoint" />
          </mxGeometry>
        </mxCell>
        <mxCell id="eEtcfb9rqF0rnYNffKv3-9" style="edgeStyle=orthogonalEdgeStyle;rounded=0;orthogonalLoop=1;jettySize=auto;html=1;exitX=0.5;exitY=1;exitDx=0;exitDy=0;" edge="1" parent="1" source="eEtcfb9rqF0rnYNffKv3-11" target="eEtcfb9rqF0rnYNffKv3-14">
          <mxGeometry relative="1" as="geometry">
            <mxPoint x="363" y="350" as="targetPoint" />
          </mxGeometry>
        </mxCell>
        <mxCell id="eEtcfb9rqF0rnYNffKv3-10" style="edgeStyle=orthogonalEdgeStyle;rounded=0;orthogonalLoop=1;jettySize=auto;html=1;exitX=0.5;exitY=1;exitDx=0;exitDy=0;entryX=0.5;entryY=0;entryDx=0;entryDy=0;" edge="1" parent="1" source="eEtcfb9rqF0rnYNffKv3-11" target="eEtcfb9rqF0rnYNffKv3-13">
          <mxGeometry relative="1" as="geometry" />
        </mxCell>
        <mxCell id="eEtcfb9rqF0rnYNffKv3-11" value="首页" style="rounded=0;whiteSpace=wrap;html=1;" vertex="1" parent="1">
          <mxGeometry x="200" y="280" width="120" height="40" as="geometry" />
        </mxCell>
        <mxCell id="eEtcfb9rqF0rnYNffKv3-12" value="贷&lt;br&gt;款&lt;br&gt;数&lt;br&gt;据&lt;br&gt;概&lt;br&gt;况" style="rounded=0;whiteSpace=wrap;html=1;" vertex="1" parent="1">
          <mxGeometry x="180" y="360" width="40" height="160" as="geometry" />
        </mxCell>
        <mxCell id="eEtcfb9rqF0rnYNffKv3-13" value="最&lt;br&gt;近&lt;br&gt;通&lt;br&gt;告&lt;br&gt;展&lt;br&gt;示" style="rounded=0;whiteSpace=wrap;html=1;" vertex="1" parent="1">
          <mxGeometry x="240" y="360" width="40" height="160" as="geometry" />
        </mxCell>
        <mxCell id="eEtcfb9rqF0rnYNffKv3-14" value="待&lt;br&gt;处&lt;br&gt;理&lt;br&gt;消&lt;br&gt;息" style="rounded=0;whiteSpace=wrap;html=1;" vertex="1" parent="1">
          <mxGeometry x="300" y="360" width="40" height="160" as="geometry" />
        </mxCell>
        <mxCell id="eEtcfb9rqF0rnYNffKv3-15" style="edgeStyle=orthogonalEdgeStyle;rounded=0;orthogonalLoop=1;jettySize=auto;html=1;exitX=0.5;exitY=1;exitDx=0;exitDy=0;entryX=0.5;entryY=0;entryDx=0;entryDy=0;" edge="1" parent="1" source="eEtcfb9rqF0rnYNffKv3-18" target="eEtcfb9rqF0rnYNffKv3-19">
          <mxGeometry relative="1" as="geometry" />
        </mxCell>
        <mxCell id="eEtcfb9rqF0rnYNffKv3-16" style="edgeStyle=orthogonalEdgeStyle;rounded=0;orthogonalLoop=1;jettySize=auto;html=1;exitX=0.5;exitY=1;exitDx=0;exitDy=0;entryX=0.5;entryY=0;entryDx=0;entryDy=0;" edge="1" parent="1" source="eEtcfb9rqF0rnYNffKv3-18" target="eEtcfb9rqF0rnYNffKv3-20">
          <mxGeometry relative="1" as="geometry" />
        </mxCell>
        <mxCell id="eEtcfb9rqF0rnYNffKv3-17" style="edgeStyle=orthogonalEdgeStyle;rounded=0;orthogonalLoop=1;jettySize=auto;html=1;exitX=0.5;exitY=1;exitDx=0;exitDy=0;entryX=0.5;entryY=0;entryDx=0;entryDy=0;" edge="1" parent="1" source="eEtcfb9rqF0rnYNffKv3-18" target="eEtcfb9rqF0rnYNffKv3-21">
          <mxGeometry relative="1" as="geometry" />
        </mxCell>
        <mxCell id="eEtcfb9rqF0rnYNffKv3-18" value="贷款审核" style="rounded=0;whiteSpace=wrap;html=1;" vertex="1" parent="1">
          <mxGeometry x="380" y="280" width="120" height="40" as="geometry" />
        </mxCell>
        <mxCell id="eEtcfb9rqF0rnYNffKv3-19" value="贷&lt;br&gt;款&lt;br&gt;审&lt;br&gt;批" style="rounded=0;whiteSpace=wrap;html=1;" vertex="1" parent="1">
          <mxGeometry x="360" y="360" width="40" height="160" as="geometry" />
        </mxCell>
        <mxCell id="eEtcfb9rqF0rnYNffKv3-20" value="贷&lt;br&gt;款&lt;br&gt;发&lt;br&gt;放" style="rounded=0;whiteSpace=wrap;html=1;" vertex="1" parent="1">
          <mxGeometry x="420" y="360" width="40" height="160" as="geometry" />
        </mxCell>
        <mxCell id="eEtcfb9rqF0rnYNffKv3-21" value="贷&lt;br&gt;款&lt;br&gt;延&lt;br&gt;期" style="rounded=0;whiteSpace=wrap;html=1;" vertex="1" parent="1">
          <mxGeometry x="480" y="360" width="40" height="160" as="geometry" />
        </mxCell>
        <mxCell id="eEtcfb9rqF0rnYNffKv3-22" value="基&lt;br&gt;本&lt;br&gt;信&lt;br&gt;息&lt;br&gt;" style="rounded=0;whiteSpace=wrap;html=1;" vertex="1" parent="1">
          <mxGeometry x="540" y="360" width="40" height="160" as="geometry" />
        </mxCell>
        <mxCell id="eEtcfb9rqF0rnYNffKv3-23" value="账&lt;br&gt;号&lt;br&gt;设&lt;br&gt;置" style="rounded=0;whiteSpace=wrap;html=1;" vertex="1" parent="1">
          <mxGeometry x="620" y="360" width="40" height="160" as="geometry" />
        </mxCell>
        <mxCell id="eEtcfb9rqF0rnYNffKv3-24" style="edgeStyle=orthogonalEdgeStyle;rounded=0;orthogonalLoop=1;jettySize=auto;html=1;exitX=0.5;exitY=1;exitDx=0;exitDy=0;entryX=0.5;entryY=0;entryDx=0;entryDy=0;" edge="1" parent="1" source="eEtcfb9rqF0rnYNffKv3-26" target="eEtcfb9rqF0rnYNffKv3-22">
          <mxGeometry relative="1" as="geometry" />
        </mxCell>
        <mxCell id="eEtcfb9rqF0rnYNffKv3-25" style="edgeStyle=orthogonalEdgeStyle;rounded=0;orthogonalLoop=1;jettySize=auto;html=1;exitX=0.5;exitY=1;exitDx=0;exitDy=0;entryX=0.5;entryY=0;entryDx=0;entryDy=0;" edge="1" parent="1" source="eEtcfb9rqF0rnYNffKv3-26" target="eEtcfb9rqF0rnYNffKv3-23">
          <mxGeometry relative="1" as="geometry" />
        </mxCell>
        <mxCell id="eEtcfb9rqF0rnYNffKv3-26" value="我的信息" style="rounded=0;whiteSpace=wrap;html=1;" vertex="1" parent="1">
          <mxGeometry x="540" y="280" width="120" height="40" as="geometry" />
        </mxCell>
        <mxCell id="eEtcfb9rqF0rnYNffKv3-27" value="退&lt;br&gt;出&lt;br&gt;登&lt;br&gt;录" style="rounded=0;whiteSpace=wrap;html=1;" vertex="1" parent="1">
          <mxGeometry x="680" y="360" width="40" height="160" as="geometry" />
        </mxCell>
        <mxCell id="eEtcfb9rqF0rnYNffKv3-28" style="edgeStyle=orthogonalEdgeStyle;rounded=0;orthogonalLoop=1;jettySize=auto;html=1;exitX=0.5;exitY=1;exitDx=0;exitDy=0;" edge="1" parent="1" source="eEtcfb9rqF0rnYNffKv3-33" target="eEtcfb9rqF0rnYNffKv3-34">
          <mxGeometry relative="1" as="geometry">
            <mxPoint x="157" y="280" as="targetPoint" />
            <Array as="points">
              <mxPoint x="410" y="240" />
              <mxPoint x="80" y="240" />
            </Array>
          </mxGeometry>
        </mxCell>
        <mxCell id="eEtcfb9rqF0rnYNffKv3-29" style="edgeStyle=orthogonalEdgeStyle;rounded=0;orthogonalLoop=1;jettySize=auto;html=1;exitX=0.5;exitY=1;exitDx=0;exitDy=0;" edge="1" parent="1" source="eEtcfb9rqF0rnYNffKv3-33" target="eEtcfb9rqF0rnYNffKv3-38">
          <mxGeometry relative="1" as="geometry">
            <mxPoint x="197" y="310" as="targetPoint" />
            <Array as="points">
              <mxPoint x="440" y="240" />
              <mxPoint x="260" y="240" />
            </Array>
          </mxGeometry>
        </mxCell>
        <mxCell id="eEtcfb9rqF0rnYNffKv3-30" style="edgeStyle=orthogonalEdgeStyle;rounded=0;orthogonalLoop=1;jettySize=auto;html=1;exitX=0.5;exitY=1;exitDx=0;exitDy=0;entryX=0.5;entryY=0;entryDx=0;entryDy=0;" edge="1" parent="1" source="eEtcfb9rqF0rnYNffKv3-33" target="eEtcfb9rqF0rnYNffKv3-45">
          <mxGeometry relative="1" as="geometry" />
        </mxCell>
        <mxCell id="eEtcfb9rqF0rnYNffKv3-31" style="edgeStyle=orthogonalEdgeStyle;rounded=0;orthogonalLoop=1;jettySize=auto;html=1;exitX=0.5;exitY=1;exitDx=0;exitDy=0;entryX=0.5;entryY=0;entryDx=0;entryDy=0;" edge="1" parent="1" source="eEtcfb9rqF0rnYNffKv3-33" target="eEtcfb9rqF0rnYNffKv3-53">
          <mxGeometry relative="1" as="geometry" />
        </mxCell>
        <mxCell id="eEtcfb9rqF0rnYNffKv3-32" style="edgeStyle=orthogonalEdgeStyle;rounded=0;orthogonalLoop=1;jettySize=auto;html=1;exitX=0.5;exitY=1;exitDx=0;exitDy=0;entryX=0.5;entryY=0;entryDx=0;entryDy=0;" edge="1" parent="1" source="eEtcfb9rqF0rnYNffKv3-33" target="eEtcfb9rqF0rnYNffKv3-54">
          <mxGeometry relative="1" as="geometry">
            <mxPoint x="740" y="280" as="targetPoint" />
            <Array as="points">
              <mxPoint x="440" y="240" />
              <mxPoint x="700" y="240" />
            </Array>
          </mxGeometry>
        </mxCell>
        <mxCell id="eEtcfb9rqF0rnYNffKv3-33" value="管理员功能" style="rounded=0;whiteSpace=wrap;html=1;" vertex="1" parent="1">
          <mxGeometry x="380" y="160" width="120" height="40" as="geometry" />
        </mxCell>
        <mxCell id="eEtcfb9rqF0rnYNffKv3-34" value="&lt;p style=&quot;direction: ltr; line-height: 120%;&quot;&gt;用&lt;/p&gt;&lt;p style=&quot;direction: ltr; line-height: 120%;&quot;&gt;户&lt;/p&gt;&lt;p style=&quot;direction: ltr; line-height: 120%;&quot;&gt;登&lt;/p&gt;&lt;p style=&quot;direction: ltr; line-height: 120%;&quot;&gt;录&lt;/p&gt;" style="rounded=0;whiteSpace=wrap;html=1;horizontal=1;verticalAlign=middle;" vertex="1" parent="1">
          <mxGeometry x="120" y="360" width="40" height="160" as="geometry" />
        </mxCell>
        <mxCell id="eEtcfb9rqF0rnYNffKv3-35" style="edgeStyle=orthogonalEdgeStyle;rounded=0;orthogonalLoop=1;jettySize=auto;html=1;exitX=0.5;exitY=1;exitDx=0;exitDy=0;" edge="1" parent="1" source="eEtcfb9rqF0rnYNffKv3-38" target="eEtcfb9rqF0rnYNffKv3-39">
          <mxGeometry relative="1" as="geometry">
            <mxPoint x="223" y="350" as="targetPoint" />
          </mxGeometry>
        </mxCell>
        <mxCell id="eEtcfb9rqF0rnYNffKv3-36" style="edgeStyle=orthogonalEdgeStyle;rounded=0;orthogonalLoop=1;jettySize=auto;html=1;exitX=0.5;exitY=1;exitDx=0;exitDy=0;" edge="1" parent="1" source="eEtcfb9rqF0rnYNffKv3-38" target="eEtcfb9rqF0rnYNffKv3-41">
          <mxGeometry relative="1" as="geometry">
            <mxPoint x="363" y="350" as="targetPoint" />
          </mxGeometry>
        </mxCell>
        <mxCell id="eEtcfb9rqF0rnYNffKv3-37" style="edgeStyle=orthogonalEdgeStyle;rounded=0;orthogonalLoop=1;jettySize=auto;html=1;exitX=0.5;exitY=1;exitDx=0;exitDy=0;entryX=0.5;entryY=0;entryDx=0;entryDy=0;" edge="1" parent="1" source="eEtcfb9rqF0rnYNffKv3-38" target="eEtcfb9rqF0rnYNffKv3-40">
          <mxGeometry relative="1" as="geometry" />
        </mxCell>
        <mxCell id="eEtcfb9rqF0rnYNffKv3-38" value="系统管理" style="rounded=0;whiteSpace=wrap;html=1;" vertex="1" parent="1">
          <mxGeometry x="200" y="280" width="120" height="40" as="geometry" />
        </mxCell>
        <mxCell id="eEtcfb9rqF0rnYNffKv3-39" value="教&lt;br&gt;师&lt;br&gt;信&lt;br&gt;息&lt;br&gt;管&lt;br&gt;理" style="rounded=0;whiteSpace=wrap;html=1;" vertex="1" parent="1">
          <mxGeometry x="180" y="360" width="40" height="160" as="geometry" />
        </mxCell>
        <mxCell id="eEtcfb9rqF0rnYNffKv3-40" value="学&lt;br&gt;生&lt;br style=&quot;border-color: var(--border-color);&quot;&gt;信&lt;br style=&quot;border-color: var(--border-color);&quot;&gt;息&lt;br style=&quot;border-color: var(--border-color);&quot;&gt;管&lt;br style=&quot;border-color: var(--border-color);&quot;&gt;理" style="rounded=0;whiteSpace=wrap;html=1;" vertex="1" parent="1">
          <mxGeometry x="240" y="360" width="40" height="160" as="geometry" />
        </mxCell>
        <mxCell id="eEtcfb9rqF0rnYNffKv3-41" value="系&lt;br&gt;统&lt;br&gt;文&lt;br&gt;件&lt;br&gt;管&lt;br&gt;理" style="rounded=0;whiteSpace=wrap;html=1;" vertex="1" parent="1">
          <mxGeometry x="300" y="360" width="40" height="160" as="geometry" />
        </mxCell>
        <mxCell id="eEtcfb9rqF0rnYNffKv3-42" style="edgeStyle=orthogonalEdgeStyle;rounded=0;orthogonalLoop=1;jettySize=auto;html=1;exitX=0.5;exitY=1;exitDx=0;exitDy=0;entryX=0.5;entryY=0;entryDx=0;entryDy=0;" edge="1" parent="1" source="eEtcfb9rqF0rnYNffKv3-45" target="eEtcfb9rqF0rnYNffKv3-46">
          <mxGeometry relative="1" as="geometry" />
        </mxCell>
        <mxCell id="eEtcfb9rqF0rnYNffKv3-43" style="edgeStyle=orthogonalEdgeStyle;rounded=0;orthogonalLoop=1;jettySize=auto;html=1;exitX=0.5;exitY=1;exitDx=0;exitDy=0;entryX=0.5;entryY=0;entryDx=0;entryDy=0;" edge="1" parent="1" source="eEtcfb9rqF0rnYNffKv3-45" target="eEtcfb9rqF0rnYNffKv3-47">
          <mxGeometry relative="1" as="geometry" />
        </mxCell>
        <mxCell id="eEtcfb9rqF0rnYNffKv3-44" style="edgeStyle=orthogonalEdgeStyle;rounded=0;orthogonalLoop=1;jettySize=auto;html=1;exitX=0.5;exitY=1;exitDx=0;exitDy=0;entryX=0.5;entryY=0;entryDx=0;entryDy=0;" edge="1" parent="1" source="eEtcfb9rqF0rnYNffKv3-45" target="eEtcfb9rqF0rnYNffKv3-48">
          <mxGeometry relative="1" as="geometry" />
        </mxCell>
        <mxCell id="eEtcfb9rqF0rnYNffKv3-45" value="贷款审核" style="rounded=0;whiteSpace=wrap;html=1;" vertex="1" parent="1">
          <mxGeometry x="380" y="280" width="120" height="40" as="geometry" />
        </mxCell>
        <mxCell id="eEtcfb9rqF0rnYNffKv3-46" value="贷&lt;br&gt;款&lt;br&gt;审&lt;br&gt;批" style="rounded=0;whiteSpace=wrap;html=1;" vertex="1" parent="1">
          <mxGeometry x="360" y="360" width="40" height="160" as="geometry" />
        </mxCell>
        <mxCell id="eEtcfb9rqF0rnYNffKv3-47" value="贷&lt;br&gt;款&lt;br&gt;发&lt;br&gt;放" style="rounded=0;whiteSpace=wrap;html=1;" vertex="1" parent="1">
          <mxGeometry x="420" y="360" width="40" height="160" as="geometry" />
        </mxCell>
        <mxCell id="eEtcfb9rqF0rnYNffKv3-48" value="贷&lt;br&gt;款&lt;br&gt;延&lt;br&gt;期" style="rounded=0;whiteSpace=wrap;html=1;" vertex="1" parent="1">
          <mxGeometry x="480" y="360" width="40" height="160" as="geometry" />
        </mxCell>
        <mxCell id="eEtcfb9rqF0rnYNffKv3-49" value="基&lt;br&gt;本&lt;br&gt;信&lt;br&gt;息&lt;br&gt;" style="rounded=0;whiteSpace=wrap;html=1;" vertex="1" parent="1">
          <mxGeometry x="540" y="360" width="40" height="160" as="geometry" />
        </mxCell>
        <mxCell id="eEtcfb9rqF0rnYNffKv3-50" value="账&lt;br&gt;号&lt;br&gt;设&lt;br&gt;置" style="rounded=0;whiteSpace=wrap;html=1;" vertex="1" parent="1">
          <mxGeometry x="620" y="360" width="40" height="160" as="geometry" />
        </mxCell>
        <mxCell id="eEtcfb9rqF0rnYNffKv3-51" style="edgeStyle=orthogonalEdgeStyle;rounded=0;orthogonalLoop=1;jettySize=auto;html=1;exitX=0.5;exitY=1;exitDx=0;exitDy=0;entryX=0.5;entryY=0;entryDx=0;entryDy=0;" edge="1" parent="1" source="eEtcfb9rqF0rnYNffKv3-53" target="eEtcfb9rqF0rnYNffKv3-49">
          <mxGeometry relative="1" as="geometry" />
        </mxCell>
        <mxCell id="eEtcfb9rqF0rnYNffKv3-52" style="edgeStyle=orthogonalEdgeStyle;rounded=0;orthogonalLoop=1;jettySize=auto;html=1;exitX=0.5;exitY=1;exitDx=0;exitDy=0;entryX=0.5;entryY=0;entryDx=0;entryDy=0;" edge="1" parent="1" source="eEtcfb9rqF0rnYNffKv3-53" target="eEtcfb9rqF0rnYNffKv3-50">
          <mxGeometry relative="1" as="geometry" />
        </mxCell>
        <mxCell id="eEtcfb9rqF0rnYNffKv3-53" value="我的信息" style="rounded=0;whiteSpace=wrap;html=1;" vertex="1" parent="1">
          <mxGeometry x="540" y="280" width="120" height="40" as="geometry" />
        </mxCell>
        <mxCell id="eEtcfb9rqF0rnYNffKv3-54" value="退&lt;br&gt;出&lt;br&gt;登&lt;br&gt;录" style="rounded=0;whiteSpace=wrap;html=1;" vertex="1" parent="1">
          <mxGeometry x="680" y="360" width="40" height="160" as="geometry" />
        </mxCell>
      </root>
    </mxGraphModel>
  </diagram>
</mxfile>
